<?xml version="1.0" encoding="UTF-8" standalone="no"?>
<!DOCTYPE svg PUBLIC "-//W3C//DTD SVG 1.1//EN" "http://www.w3.org/Graphics/SVG/1.1/DTD/svg11.dtd">
<svg width="100%" height="100%" viewBox="650 80 1450 1550" version="1.1" xmlns="http://www.w3.org/2000/svg" xmlns:xlink="http://www.w3.org/1999/xlink" xml:space="preserve" xmlns:serif="http://www.serif.com/" style="fill-rule:evenodd;clip-rule:evenodd;stroke-linejoin:round;stroke-miterlimit:2;">
    <g transform="matrix(4.107114,0.002996,-0.002996,4.107114,-764.468214,-311.695164)">
        <path d="M614.091,243.521C614.14,250.928 619.78,342.761 516.25,411.121C445.77,457.658 366.249,435.439 394.689,368.576C413.21,325.036 411.097,315.111 408.562,268.497C407.145,242.445 417.776,213.986 419.455,209.489C421.995,202.69 434.235,184.048 436.328,183.086C437.093,182.734 463.402,147.017 515.508,148.233C555.193,149.16 606.334,173.548 613.668,238.477C613.858,240.153 613.901,241.844 614.091,243.521Z" style="fill:rgb(191,104,76);"/>
    </g>
    <g transform="matrix(7.047595,0.005142,-0.004204,5.762173,-2350.015475,-542.945882)">
        <path d="M579.326,141.183C576.535,142.546 559.246,150.986 540.618,144.172C537.346,142.975 539.977,133.605 548.551,123.543C568.85,99.724 601.322,112.906 601.783,114.369C602.608,116.981 595.378,127.411 594.022,129.089C589.283,134.951 580.616,140.376 579.326,141.183Z" style="fill:rgb(141,126,84);"/>
    </g>
    <g transform="matrix(4.107114,0.002996,-0.002996,4.107114,-764.468214,-311.695164)">
        <path d="M525.906,131.422C521.812,115.307 519.815,115.423 515.94,108.298C514.105,104.922 523.416,99.836 525.452,99.287C533.145,97.212 537.359,124.363 535.118,141.428C535.044,141.989 534.402,146.88 528.598,144.182C527.652,143.743 527.369,143.611 525.906,131.422Z" style="fill:rgb(140,125,86);"/>
    </g>
    <g transform="matrix(1.478638,0.001079,-0.001079,1.478638,-1062.198121,-273.013686)">
        <g transform="matrix(1,0,0,1,1293,452)">
            <path d="M231.5,454.034C204.938,453.541 204.998,453.234 178.502,454.032C168.492,454.334 161.331,446.746 161.072,438.532C159.755,396.815 169.565,391.443 190.236,370.25C192.438,367.993 190.727,364.243 183.247,326.558C153.62,177.292 154.215,177.192 150.602,164.468C148.97,158.723 140.485,139.076 125.149,126.944C86.858,96.652 80.325,99.311 81.143,84.46C81.584,76.472 93.095,62.775 108.407,74.622C145.969,103.688 160.902,108.438 177.997,147.294C179.466,150.633 180.554,149.966 206.5,149.966C546.809,149.966 546.86,149.842 550.332,150.996C555.246,152.629 563.549,159.674 560.028,171.363C559.858,171.928 506.784,331.198 506.013,333.326C500.591,348.301 482.08,374.132 446.473,376.074C428.012,377.08 218.048,388.532 215.782,389.953C214.813,390.56 199.203,406.333 198.844,406.791C197.021,409.112 189.577,421.935 195.482,421.971C223.762,422.145 496.325,421.575 499.541,422.294C519.577,426.776 515.758,453.676 496.514,453.955C495.868,453.965 256.381,453.965 235.5,453.965C233.434,453.965 233.539,453.999 231.5,454.034ZM384.966,337.5C385.14,327.435 385.018,327.54 384.966,317.5C384.94,312.384 386.614,309.967 381.5,310.034C365.911,310.238 306.396,309.532 305.483,310.483C304.631,311.369 304.963,350.885 305.324,351.622C306.102,353.211 361.069,348.739 382.527,347.862C386.124,347.715 384.996,341.118 384.966,337.5ZM421.5,277.966C477.505,277.966 488.093,277.967 488.512,277.964C491.564,277.941 491.312,276.685 498.702,254.568C500.553,249.029 503.388,245.873 497.501,246.034C496.801,246.054 419.829,245.99 418.396,246.082C417.004,246.171 417.031,251.976 417.034,252.501C417.139,274.693 416.957,274.68 417.081,276.604C417.188,278.281 418.017,277.577 421.5,277.966ZM338.5,213.966L376.5,213.966C382.451,213.966 385.035,215.49 385.035,209.5C385.036,183.915 385.349,182.467 383.449,181.982C381.738,181.545 313.564,181.994 307.488,182.034C306.049,182.044 304.904,182.22 304.965,184.506C305.166,192.105 304.925,211.91 305.08,212.605C305.454,214.273 306.264,213.966 338.5,213.966ZM324.5,277.966C383.863,277.966 384.018,278.037 384.517,277.517C385.339,276.662 385.258,247.195 384.517,246.483C383.727,245.725 306.183,245.756 305.483,246.483C303.873,248.157 304.856,248.571 305.034,275.512C305.056,278.758 307.131,277.966 324.5,277.966ZM226.5,213.966L264.5,213.966C270.451,213.966 273.035,215.49 273.035,209.5C273.036,183.915 273.349,182.467 271.449,181.982C269.813,181.564 196.035,181.992 189.478,182.03C187.32,182.042 186.861,182.409 187.309,184.533C192.164,207.559 192.167,209.736 193.085,212.672C193.579,214.252 194.285,213.966 226.5,213.966ZM268.5,277.966C272.225,277.55 272.293,277.751 272.517,277.517C273.672,276.316 272.991,276.133 272.966,270.5C272.866,247.281 273.163,247.104 272.517,246.483C271.922,245.912 271.759,246.046 208.5,246.035C202.643,246.034 199.131,243.863 200.315,249.537C205.905,276.321 205.406,276.608 206.456,277.554C206.983,278.029 207.1,277.966 268.5,277.966ZM272.966,337.5C273.14,327.435 273.018,327.54 272.966,317.5C272.94,312.376 274.616,309.944 269.5,310.034C269.314,310.037 214.968,310.025 214.424,310.045C211.532,310.154 213.603,315.458 217.018,332.589C220.886,351.994 221.053,356.921 223.511,357.119C224.627,357.208 270.219,354.49 271.464,354.334C273.535,354.073 272.966,349.587 272.966,337.5ZM429.5,213.966L509.506,213.965C513.458,213.952 513.542,210.019 514.389,207.461C521.728,185.284 523.746,181.892 520.48,181.955C509.806,182.165 420.745,181.93 418.396,182.08C417.004,182.169 417.031,187.975 417.034,188.5C417.138,210.693 416.957,210.68 417.08,212.605C417.209,214.612 424.847,213.988 429.5,213.966ZM417.034,337.5C417.001,343.825 416.166,344.102 417.588,345.395C417.658,345.458 447.24,345.542 456.302,342.003C471.258,336.161 475.917,322.802 476.697,320.567C477.501,318.262 480.774,310.578 478.657,310.073C478.278,309.983 422.759,310.057 420.5,310.034C415.372,309.98 417.06,312.42 417.034,317.5C416.982,327.54 416.86,327.435 417.034,337.5Z" style="fill:white;"/>
        </g>
        <g transform="matrix(1,0,0,1,1301,450)">
            <path d="M209.513,549.922C208.921,549.869 185.266,551.081 170.095,529.801C145.976,495.97 174.685,456.473 200.498,455.492C204.781,455.329 237.686,449.779 252.682,482.415C264.016,507.083 250.109,526.694 247.905,529.802C233.257,550.456 210.502,549.823 209.513,549.922ZM209.5,484C219.71,484 228,492.29 228,502.5C228,512.71 219.71,521 209.5,521C199.29,521 191,512.71 191,502.5C191,492.29 199.29,484 209.5,484Z" style="fill:white;"/>
        </g>
        <g transform="matrix(1,0,0,1,1540,450)">
            <path d="M209.513,549.922C208.921,549.869 185.266,551.081 170.095,529.801C145.976,495.97 174.685,456.473 200.498,455.492C204.781,455.329 237.686,449.779 252.682,482.415C264.016,507.083 250.109,526.694 247.905,529.802C233.257,550.456 210.502,549.823 209.513,549.922ZM209.5,484C219.71,484 228,492.29 228,502.5C228,512.71 219.71,521 209.5,521C199.29,521 191,512.71 191,502.5C191,492.29 199.29,484 209.5,484Z" style="fill:white;"/>
        </g>
    </g>
</svg>
