<?xml version="1.0" encoding="UTF-8"?>
<!DOCTYPE svg PUBLIC "-//W3C//DTD SVG 1.1//EN" "http://www.w3.org/Graphics/SVG/1.1/DTD/svg11.dtd">
<!-- Creator: CorelDRAW -->
<svg xmlns="http://www.w3.org/2000/svg" xml:space="preserve" width="297mm" height="210mm" version="1.1" style="shape-rendering:geometricPrecision; text-rendering:geometricPrecision; image-rendering:optimizeQuality; fill-rule:evenodd; clip-rule:evenodd"
viewBox="0 0 29700 21000"
 xmlns:xlink="http://www.w3.org/1999/xlink"
 xmlns:xodm="http://www.corel.com/coreldraw/odm/2003">
 <defs>
  <style type="text/css">
   <![CDATA[
    .fil1 {fill:#0E1F39}
    .fil0 {fill:#66BE49}
    .fil2 {fill:#FEFEFC}
   ]]>
  </style>
 </defs>
 <g id="Capa_x0020_1">
  <metadata id="CorelCorpID_0Corel-Layer"/>
  <path class="fil0" d="M10297.47 5795.33l-737.6 -1.75 -106.97 754.93c-38.77,381.04 -126.68,874.23 -177.79,1279.61 -41.47,328.89 -102.28,678.59 -142.98,1016.21l-143.82 1011.53 938.56 2.35c27.38,-132.06 154.73,-1128.12 161.96,-1216.75 9.44,-115.76 68.03,-457.69 87.39,-599.27 13.7,-100.21 59.54,-559.57 85.37,-604.72 23.61,30.71 430.38,1048.01 474.05,1148.88 34.43,79.52 130.69,345.25 167.48,386.49l610.93 1.16 492.12 -769.51c50.61,-82.52 476.2,-749.72 501.28,-762.05l-81.97 898.85c-36.16,303.8 -41.68,618.93 -82.44,900.19 -12.14,83.74 -16.34,211.28 -21.03,302.37 -4.62,89.78 -29.12,236.11 -19.4,314l930.13 0.65c30,-339.19 51.29,-678.75 79.97,-1014.48 14.6,-170.9 27.36,-331.23 41.62,-498.84 14.3,-168.01 16.13,-349.65 37.44,-517.77 41.79,-329.59 50.02,-666.32 86.06,-997.02 27.24,-249.93 26.14,-522.96 61.7,-759.65 12.46,-82.91 12.11,-183.9 15.24,-274.23l-900.72 -0.72 -165.8 255.97c-195.77,318.11 -456.81,695.65 -662.74,1023.2 -56.13,89.28 -113.6,171.98 -166.4,257.72 -50.89,82.66 -113.59,174 -165.78,258.91 -19.29,31.4 -153.78,241.45 -166.3,252.46 -22.25,-33.67 -40.27,-89.55 -57.63,-130.92l-514.62 -1237.08c-40.43,-98.4 -71.56,-178.24 -113.95,-282.17 -154.79,-379.46 -135.6,-235.59 -132.36,-649.32 2.06,-262.7 89,-413.86 232.62,-548.66 134.05,-125.81 336.19,-216.19 586.38,-180.5 205.18,29.28 374.88,163.97 474.39,309.15 120.57,175.9 132.86,414.32 115.98,669.45 -117.62,7.11 -758.01,12.04 -834.34,-6.22 -33.33,-118.85 3.42,-412.38 43.58,-518.62 26.74,-70.77 62.76,-127.16 102.06,-181.95 64.64,-90.12 132.02,-113.53 143.58,-150.87 -78.18,-32.31 -238.1,-48.01 -288.94,6.11 -42.56,45.3 -109.89,149.55 -139.94,219.76 -120.62,281.86 -39.31,578.53 -83.06,625.05 -16.15,17.18 -18.98,10.45 -86.49,9.86 -38.71,-0.34 -77.48,-0.16 -116.18,-0.4 9.74,48.79 26.8,78.63 43.45,114.28 15.98,34.22 25.75,72.42 41.43,105.93 15.83,33.81 32.32,77.84 42.86,103.97l565.33 1361.4c6.88,10.55 6.88,9.9 12.71,15.88 29.74,-29.36 854.2,-1328.36 948.62,-1475.5 51.61,-80.44 112.45,-146.13 134.77,-225.91l-320.52 0.72c-23.02,-165.27 17.34,-334.08 -22.97,-504.04 -171.36,-722.56 -1120.16,-957.72 -1602.39,-353.16 -116.11,145.57 -87.12,135.14 -140.55,246.76 -79.13,165.3 -55.46,444.7 -63.38,608.28z"/>
  <path class="fil0" d="M21512.9 7202.65c-68.39,-15.68 -1266.25,-285.57 -1781.64,655.76 -109.12,234.5 -140.59,509.86 -73.89,799.6 39.22,170.35 127.47,337.64 242.69,468.52l113.35 122.64c-153.75,150.61 -211.6,119.4 -348.99,394.33 -43.54,87.13 -61.56,204.64 -52.66,324.54 23.46,316.13 265.79,484.1 568.46,559.59 104.56,26.09 195.18,49.6 325.37,53.17 340.02,9.32 1365.94,-339.26 1376.49,373.06 8.35,562.69 -998.06,559 -1399.3,436.3 -504.98,-154.42 -317.85,-532.28 -319.93,-590.35 -359.03,-28.54 -673.38,21.27 -815.57,258.96 -241.95,404.46 279.1,781.82 617.39,906.95 116.46,43.08 217.52,72.92 346.18,99.11 752.67,153.21 1902.81,35.33 2294.6,-669.93 176.55,-317.79 166.03,-762.44 -23.34,-1051.6 -175.94,-268.66 -584.51,-481.26 -912.84,-498.14 -142.27,-7.31 -1194.27,155.83 -1277.98,42.75 -115.27,-562.59 570.64,-194.22 1106.92,-309.58 195.18,-41.99 376.94,-110.31 538.64,-216.55 199.84,-131.3 371.17,-318.5 464.16,-551.55 55.31,-138.64 86.33,-237.56 89.95,-418.1 -62.71,-970.23 -836.37,-1134.08 -1078.06,-1189.48zm-429.06 637.2c347.46,-3.12 647.85,209.61 670.93,475.14 23.08,265.54 -239.89,483.32 -587.35,486.44 -347.46,3.11 -647.85,-209.61 -670.93,-475.15 -23.09,-265.53 239.88,-483.31 587.35,-486.43z"/>
  <path class="fil0" d="M24253.19 7105.49c-341.17,45.02 -300.69,33.3 -592.74,144.65 -171.96,65.56 -345.27,187.53 -450.32,298.75 -132.63,140.4 -222.25,255.56 -303.78,433.25 -82.87,180.61 -119.57,396.15 -117.39,631.16 4.23,456.54 209.61,805.07 477.43,1008.84 456.84,347.57 1207.71,396.32 1783.37,153.28 188.26,-79.49 317.51,-179.19 447.41,-299.07 255.8,-236.06 429.31,-587.14 423.21,-1065.79 -8.47,-664.95 -421.78,-1102.06 -992.97,-1245.49 -204.27,-51.3 -440.84,-90.38 -674.22,-59.58z"/>
  <path class="fil0" d="M15586.36 9524.6l-12.68 331.25 796.54 3.41c20.05,-223.38 47.35,-437.56 66.43,-664.77 18.6,-221.57 40.33,-443.69 64.16,-661.96l92.2 -1006.54c8.43,-108.44 28.04,-233.4 28.84,-345.72l-760.82 0.22c-44.55,70.17 -32.94,237.95 -66.56,315.36 -19.14,-9.74 -50.12,-70.74 -109.86,-125.48 -361.29,-331.04 -907.5,-295.13 -1304.2,-100.1 -912.03,448.4 -1078.72,2046.33 -206.08,2523.62 418.5,228.91 1019.86,155.96 1346.49,-203.11 18.84,-20.7 35.22,-48.94 65.54,-66.18zm-552.17 -1630.43c-187.68,43.09 -233.99,39.42 -388.23,222.53 -88.63,105.22 -154.75,276.79 -155.85,450.25 -4.58,718.27 720.3,733.06 987.57,363.62 94.13,-130.12 154.01,-246.62 160.33,-446.22 12.85,-405.55 -260.92,-668.9 -603.82,-590.18z"/>
  <path class="fil1" d="M3417.09 10051.37l3340.27 2.17c645.99,-1.13 1044.11,39.04 1566.07,-227.02 362.08,-184.56 266.38,-163.81 327.31,-563.48 41.09,-269.5 75.97,-532 105.33,-813.58 -48.95,22.32 -106.98,78.81 -165.59,117.56 -56.12,37.1 -97.7,67.34 -165.88,103.68 -478.78,255.21 -780.73,272.52 -1349.96,275.06 -361.91,1.61 -724.1,0.59 -1086.08,0.24 -344.61,-0.33 -753.75,-20.56 -1090.28,0.62 -3.11,-209.83 67.9,-530.2 153.65,-683.92 96.01,-172.12 251.65,-301.28 465.69,-374.23 236.29,-80.54 481.02,-76.71 751.61,-77.81 277.17,-1.13 570.25,-7.04 845.74,2.58 17.78,-163.87 133.35,-932.56 124.37,-1000.2 -274.99,-15.63 -593.06,-5.07 -872.48,-3.81 -294.76,1.32 -525.66,30.33 -787.74,99.07 -483.3,126.76 -798.27,294.15 -1169.27,602.71 -136.49,113.53 -307.12,303.15 -414.42,464.31 -167.65,251.78 -192.85,297.63 -303.71,587.09 -81.5,212.78 -182.06,821.02 -220.21,1099.42 -15.13,110.39 -57.62,286.26 -54.42,389.54z"/>
  <path class="fil0" d="M17744.21 7393.04l2.56 -213.1 -789.1 -0.02 -93.79 1008.61c-8.66,109.17 -25.8,221.12 -35.1,332.37 -18.55,221.93 -34.24,457.61 -60.75,669.22l-68.01 666.52 723.64 1.75c11.99,-198.96 36.34,-406.84 57.35,-592.18 31.22,-275.43 45.72,-907.43 174.78,-1116.07 230.14,-372.06 721.7,-327.88 825.45,-57.75 68.05,177.18 34.12,387.17 14.74,576.91 -19.8,193.92 -41.75,394.01 -55.69,589.07 -13.63,190.72 -50.99,414.09 -52.16,597.2 70.56,9.04 590.65,2.59 707.52,2.77 194.84,0.3 171.68,34.86 183.5,-166.53 21.79,-371.38 151.06,-1399.88 130.86,-1648.62 -31.37,-386.22 -180.23,-732.18 -564.98,-858.97 -189.48,-62.44 -411.33,-81.16 -624.57,-28.66 -112.96,27.82 -283.88,94.42 -374.47,161.53 -23.25,17.23 -86.32,68.87 -101.78,75.95z"/>
  <path class="fil1" d="M3752.48 7848.45c51.79,-28.75 63.89,-80.9 142.88,-168.5 299.12,-331.76 478.38,-467.72 866.97,-682.79 141.13,-78.12 378.32,-167.08 425.78,-196.44l152.46 -1019.98 2288.31 -3.01c21.33,-50.4 158.16,-1016.84 157.39,-1109.42 -1150.83,3.14 -2346.92,11.93 -3495.04,-0.47 -108.5,-1.18 -79.5,16.77 -93.76,121.74 -7.54,55.5 -17.18,114.52 -25.37,175.62 -33.36,248.81 -73.37,465.95 -106.21,719.31 -74.99,578.79 -176.81,1205.83 -264.26,1791.81 -15.92,106.69 -45.93,267.32 -49.15,372.13z"/>
  <path class="fil1" d="M7648.44 8647.62c409.78,-71.13 714.54,-199.68 956.64,-431.46 225.69,-216.08 203.91,-265.6 235.32,-463.45 31.26,-196.93 55.97,-408.72 83.03,-612.56 54.38,-409.59 104,-817.36 162.4,-1226.28l160.1 -1240.95 -1050.31 -3.41c-58.73,311.01 -94.85,663.46 -141.92,982.91 -48.87,331.75 -95.55,670.84 -137.51,997.82 -29.5,229.94 -285.2,1921.19 -267.75,1997.38z"/>
  <path class="fil2" d="M24739.47 8541.78c-101,25.28 -152.79,50.03 -213.85,128.57 -51.95,66.81 -75.18,160.26 -60.82,271.68 52.38,406.49 751.88,368.3 670.32,-139.49 -26.65,-165.93 -200.04,-309.71 -395.65,-260.76z"/>
  <path class="fil2" d="M23876.35 7796.51c-77.35,24.5 -151.46,52.45 -204.27,130.49 -45.6,67.38 -68.02,185.37 -46.19,284.55 40.03,181.91 192.08,291.59 423.01,241.22 180.67,-39.4 277.61,-218.59 234.69,-421.43 -31.82,-150.35 -211.2,-296.91 -407.24,-234.83z"/>
  <path class="fil2" d="M23736.73 9206.9c51.17,4.29 108.55,2.19 160.52,2.61 72.65,0.6 83.57,-2.95 112.31,-49.28l1014.09 -1360.77c-53.74,-3.44 -105.51,-1.35 -159.4,-1.78 -79.89,-0.64 -79.3,-0.9 -114.43,45.83 -44.4,59.05 -102.49,130.23 -148.96,192.64 -123.88,166.37 -859.3,1139.25 -864.13,1170.75z"/>
  <path class="fil0" d="M11693.47 4604.58c14.49,18.23 110.64,71.72 135.17,88.52 49.28,33.77 79.89,62.61 123.04,106.84 91.25,93.52 295.14,76.06 475.06,427.66 72.23,141.14 42.17,235.97 70.96,390.3l201.11 1.34c9.83,-338.74 -81.17,-562.85 -264.2,-749.18 -86.32,-87.88 -175.9,-154.71 -303.38,-204.58 -79.88,-31.25 -338.2,-110.5 -437.76,-60.9z"/>
  <path class="fil0" d="M23916.11 7966.21c-78.82,22.91 -108.34,110.79 -91.34,202.82 12.85,69.54 70.61,138.51 168.41,115.5 153.2,-36.03 122.38,-376.29 -77.07,-318.32z"/>
  <path class="fil0" d="M24763.39 8721.6c-150.66,58.36 -117.17,380.91 98.72,305.3 131.17,-45.94 95,-380.35 -98.72,-305.3z"/>
 </g>
</svg>
